<?xml version="1.0" encoding="utf-8" standalone="no"?>
<!DOCTYPE svg PUBLIC "-//W3C//DTD SVG 1.1//EN"
  "http://www.w3.org/Graphics/SVG/1.1/DTD/svg11.dtd">
<!-- Created with matplotlib (https://matplotlib.org/) -->
<svg height="432pt" version="1.1" viewBox="0 0 864 432" width="864pt" xmlns="http://www.w3.org/2000/svg" xmlns:xlink="http://www.w3.org/1999/xlink">
 <metadata>
  <rdf:RDF xmlns:cc="http://creativecommons.org/ns#" xmlns:dc="http://purl.org/dc/elements/1.1/" xmlns:rdf="http://www.w3.org/1999/02/22-rdf-syntax-ns#">
   <cc:Work>
    <dc:type rdf:resource="http://purl.org/dc/dcmitype/StillImage"/>
    <dc:date>2021-06-27T13:46:10.750432</dc:date>
    <dc:format>image/svg+xml</dc:format>
    <dc:creator>
     <cc:Agent>
      <dc:title>Matplotlib v3.3.4, https://matplotlib.org/</dc:title>
     </cc:Agent>
    </dc:creator>
   </cc:Work>
  </rdf:RDF>
 </metadata>
 <defs>
  <style type="text/css">*{stroke-linecap:butt;stroke-linejoin:round;}</style>
 </defs>
 <g id="figure_1">
  <g id="patch_1">
   <path d="M 0 432 
L 864 432 
L 864 0 
L 0 0 
z
" style="fill:none;"/>
  </g>
  <g id="axes_1">
   <g id="patch_2">
    <path d="M 108 378 
L 777.6 378 
L 777.6 51.84 
L 108 51.84 
z
" style="fill:#ffffff;"/>
   </g>
   <g id="matplotlib.axis_1">
    <g id="xtick_1">
     <g id="line2d_1">
      <defs>
       <path d="M 0 0 
L 0 3.5 
" id="mf2eecc0390" style="stroke:#000000;stroke-width:0.8;"/>
      </defs>
      <g>
       <use style="stroke:#000000;stroke-width:0.8;" x="169.243661" xlink:href="#mf2eecc0390" y="378"/>
      </g>
     </g>
     <g id="text_1">
      <!-- −1.0 -->
      <g transform="translate(149.817411 397.1575)scale(0.16 -0.16)">
       <defs>
        <path d="M 10.59375 35.5 
L 73.1875 35.5 
L 73.1875 27.203125 
L 10.59375 27.203125 
z
" id="DejaVuSans-8722"/>
        <path d="M 12.40625 8.296875 
L 28.515625 8.296875 
L 28.515625 63.921875 
L 10.984375 60.40625 
L 10.984375 69.390625 
L 28.421875 72.90625 
L 38.28125 72.90625 
L 38.28125 8.296875 
L 54.390625 8.296875 
L 54.390625 0 
L 12.40625 0 
z
" id="DejaVuSans-49"/>
        <path d="M 10.6875 12.40625 
L 21 12.40625 
L 21 0 
L 10.6875 0 
z
" id="DejaVuSans-46"/>
        <path d="M 31.78125 66.40625 
Q 24.171875 66.40625 20.328125 58.90625 
Q 16.5 51.421875 16.5 36.375 
Q 16.5 21.390625 20.328125 13.890625 
Q 24.171875 6.390625 31.78125 6.390625 
Q 39.453125 6.390625 43.28125 13.890625 
Q 47.125 21.390625 47.125 36.375 
Q 47.125 51.421875 43.28125 58.90625 
Q 39.453125 66.40625 31.78125 66.40625 
z
M 31.78125 74.21875 
Q 44.046875 74.21875 50.515625 64.515625 
Q 56.984375 54.828125 56.984375 36.375 
Q 56.984375 17.96875 50.515625 8.265625 
Q 44.046875 -1.421875 31.78125 -1.421875 
Q 19.53125 -1.421875 13.0625 8.265625 
Q 6.59375 17.96875 6.59375 36.375 
Q 6.59375 54.828125 13.0625 64.515625 
Q 19.53125 74.21875 31.78125 74.21875 
z
" id="DejaVuSans-48"/>
       </defs>
       <use xlink:href="#DejaVuSans-8722"/>
       <use x="83.789062" xlink:href="#DejaVuSans-49"/>
       <use x="147.412109" xlink:href="#DejaVuSans-46"/>
       <use x="179.199219" xlink:href="#DejaVuSans-48"/>
      </g>
     </g>
    </g>
    <g id="xtick_2">
     <g id="line2d_2">
      <g>
       <use style="stroke:#000000;stroke-width:0.8;" x="306.054175" xlink:href="#mf2eecc0390" y="378"/>
      </g>
     </g>
     <g id="text_2">
      <!-- −0.5 -->
      <g transform="translate(286.627925 397.1575)scale(0.16 -0.16)">
       <defs>
        <path d="M 10.796875 72.90625 
L 49.515625 72.90625 
L 49.515625 64.59375 
L 19.828125 64.59375 
L 19.828125 46.734375 
Q 21.96875 47.46875 24.109375 47.828125 
Q 26.265625 48.1875 28.421875 48.1875 
Q 40.625 48.1875 47.75 41.5 
Q 54.890625 34.8125 54.890625 23.390625 
Q 54.890625 11.625 47.5625 5.09375 
Q 40.234375 -1.421875 26.90625 -1.421875 
Q 22.3125 -1.421875 17.546875 -0.640625 
Q 12.796875 0.140625 7.71875 1.703125 
L 7.71875 11.625 
Q 12.109375 9.234375 16.796875 8.0625 
Q 21.484375 6.890625 26.703125 6.890625 
Q 35.15625 6.890625 40.078125 11.328125 
Q 45.015625 15.765625 45.015625 23.390625 
Q 45.015625 31 40.078125 35.4375 
Q 35.15625 39.890625 26.703125 39.890625 
Q 22.75 39.890625 18.8125 39.015625 
Q 14.890625 38.140625 10.796875 36.28125 
z
" id="DejaVuSans-53"/>
       </defs>
       <use xlink:href="#DejaVuSans-8722"/>
       <use x="83.789062" xlink:href="#DejaVuSans-48"/>
       <use x="147.412109" xlink:href="#DejaVuSans-46"/>
       <use x="179.199219" xlink:href="#DejaVuSans-53"/>
      </g>
     </g>
    </g>
    <g id="xtick_3">
     <g id="line2d_3">
      <g>
       <use style="stroke:#000000;stroke-width:0.8;" x="442.864689" xlink:href="#mf2eecc0390" y="378"/>
      </g>
     </g>
     <g id="text_3">
      <!-- 0.0 -->
      <g transform="translate(430.142189 397.1575)scale(0.16 -0.16)">
       <use xlink:href="#DejaVuSans-48"/>
       <use x="63.623047" xlink:href="#DejaVuSans-46"/>
       <use x="95.410156" xlink:href="#DejaVuSans-48"/>
      </g>
     </g>
    </g>
    <g id="xtick_4">
     <g id="line2d_4">
      <g>
       <use style="stroke:#000000;stroke-width:0.8;" x="579.675203" xlink:href="#mf2eecc0390" y="378"/>
      </g>
     </g>
     <g id="text_4">
      <!-- 0.5 -->
      <g transform="translate(566.952703 397.1575)scale(0.16 -0.16)">
       <use xlink:href="#DejaVuSans-48"/>
       <use x="63.623047" xlink:href="#DejaVuSans-46"/>
       <use x="95.410156" xlink:href="#DejaVuSans-53"/>
      </g>
     </g>
    </g>
    <g id="xtick_5">
     <g id="line2d_5">
      <g>
       <use style="stroke:#000000;stroke-width:0.8;" x="716.485717" xlink:href="#mf2eecc0390" y="378"/>
      </g>
     </g>
     <g id="text_5">
      <!-- 1.0 -->
      <g transform="translate(703.763217 397.1575)scale(0.16 -0.16)">
       <use xlink:href="#DejaVuSans-49"/>
       <use x="63.623047" xlink:href="#DejaVuSans-46"/>
       <use x="95.410156" xlink:href="#DejaVuSans-48"/>
      </g>
     </g>
    </g>
    <g id="text_6">
     <!-- VADER Sentiment -->
     <g transform="translate(371.6975 416.6425)scale(0.16 -0.16)">
      <defs>
       <path d="M 28.609375 0 
L 0.78125 72.90625 
L 11.078125 72.90625 
L 34.1875 11.53125 
L 57.328125 72.90625 
L 67.578125 72.90625 
L 39.796875 0 
z
" id="DejaVuSans-86"/>
       <path d="M 34.1875 63.1875 
L 20.796875 26.90625 
L 47.609375 26.90625 
z
M 28.609375 72.90625 
L 39.796875 72.90625 
L 67.578125 0 
L 57.328125 0 
L 50.6875 18.703125 
L 17.828125 18.703125 
L 11.1875 0 
L 0.78125 0 
z
" id="DejaVuSans-65"/>
       <path d="M 19.671875 64.796875 
L 19.671875 8.109375 
L 31.59375 8.109375 
Q 46.6875 8.109375 53.6875 14.9375 
Q 60.6875 21.78125 60.6875 36.53125 
Q 60.6875 51.171875 53.6875 57.984375 
Q 46.6875 64.796875 31.59375 64.796875 
z
M 9.8125 72.90625 
L 30.078125 72.90625 
Q 51.265625 72.90625 61.171875 64.09375 
Q 71.09375 55.28125 71.09375 36.53125 
Q 71.09375 17.671875 61.125 8.828125 
Q 51.171875 0 30.078125 0 
L 9.8125 0 
z
" id="DejaVuSans-68"/>
       <path d="M 9.8125 72.90625 
L 55.90625 72.90625 
L 55.90625 64.59375 
L 19.671875 64.59375 
L 19.671875 43.015625 
L 54.390625 43.015625 
L 54.390625 34.71875 
L 19.671875 34.71875 
L 19.671875 8.296875 
L 56.78125 8.296875 
L 56.78125 0 
L 9.8125 0 
z
" id="DejaVuSans-69"/>
       <path d="M 44.390625 34.1875 
Q 47.5625 33.109375 50.5625 29.59375 
Q 53.5625 26.078125 56.59375 19.921875 
L 66.609375 0 
L 56 0 
L 46.6875 18.703125 
Q 43.0625 26.03125 39.671875 28.421875 
Q 36.28125 30.8125 30.421875 30.8125 
L 19.671875 30.8125 
L 19.671875 0 
L 9.8125 0 
L 9.8125 72.90625 
L 32.078125 72.90625 
Q 44.578125 72.90625 50.734375 67.671875 
Q 56.890625 62.453125 56.890625 51.90625 
Q 56.890625 45.015625 53.6875 40.46875 
Q 50.484375 35.9375 44.390625 34.1875 
z
M 19.671875 64.796875 
L 19.671875 38.921875 
L 32.078125 38.921875 
Q 39.203125 38.921875 42.84375 42.21875 
Q 46.484375 45.515625 46.484375 51.90625 
Q 46.484375 58.296875 42.84375 61.546875 
Q 39.203125 64.796875 32.078125 64.796875 
z
" id="DejaVuSans-82"/>
       <path id="DejaVuSans-32"/>
       <path d="M 53.515625 70.515625 
L 53.515625 60.890625 
Q 47.90625 63.578125 42.921875 64.890625 
Q 37.9375 66.21875 33.296875 66.21875 
Q 25.25 66.21875 20.875 63.09375 
Q 16.5 59.96875 16.5 54.203125 
Q 16.5 49.359375 19.40625 46.890625 
Q 22.3125 44.4375 30.421875 42.921875 
L 36.375 41.703125 
Q 47.40625 39.59375 52.65625 34.296875 
Q 57.90625 29 57.90625 20.125 
Q 57.90625 9.515625 50.796875 4.046875 
Q 43.703125 -1.421875 29.984375 -1.421875 
Q 24.8125 -1.421875 18.96875 -0.25 
Q 13.140625 0.921875 6.890625 3.21875 
L 6.890625 13.375 
Q 12.890625 10.015625 18.65625 8.296875 
Q 24.421875 6.59375 29.984375 6.59375 
Q 38.421875 6.59375 43.015625 9.90625 
Q 47.609375 13.234375 47.609375 19.390625 
Q 47.609375 24.75 44.3125 27.78125 
Q 41.015625 30.8125 33.5 32.328125 
L 27.484375 33.5 
Q 16.453125 35.6875 11.515625 40.375 
Q 6.59375 45.0625 6.59375 53.421875 
Q 6.59375 63.09375 13.40625 68.65625 
Q 20.21875 74.21875 32.171875 74.21875 
Q 37.3125 74.21875 42.625 73.28125 
Q 47.953125 72.359375 53.515625 70.515625 
z
" id="DejaVuSans-83"/>
       <path d="M 56.203125 29.59375 
L 56.203125 25.203125 
L 14.890625 25.203125 
Q 15.484375 15.921875 20.484375 11.0625 
Q 25.484375 6.203125 34.421875 6.203125 
Q 39.59375 6.203125 44.453125 7.46875 
Q 49.3125 8.734375 54.109375 11.28125 
L 54.109375 2.78125 
Q 49.265625 0.734375 44.1875 -0.34375 
Q 39.109375 -1.421875 33.890625 -1.421875 
Q 20.796875 -1.421875 13.15625 6.1875 
Q 5.515625 13.8125 5.515625 26.8125 
Q 5.515625 40.234375 12.765625 48.109375 
Q 20.015625 56 32.328125 56 
Q 43.359375 56 49.78125 48.890625 
Q 56.203125 41.796875 56.203125 29.59375 
z
M 47.21875 32.234375 
Q 47.125 39.59375 43.09375 43.984375 
Q 39.0625 48.390625 32.421875 48.390625 
Q 24.90625 48.390625 20.390625 44.140625 
Q 15.875 39.890625 15.1875 32.171875 
z
" id="DejaVuSans-101"/>
       <path d="M 54.890625 33.015625 
L 54.890625 0 
L 45.90625 0 
L 45.90625 32.71875 
Q 45.90625 40.484375 42.875 44.328125 
Q 39.84375 48.1875 33.796875 48.1875 
Q 26.515625 48.1875 22.3125 43.546875 
Q 18.109375 38.921875 18.109375 30.90625 
L 18.109375 0 
L 9.078125 0 
L 9.078125 54.6875 
L 18.109375 54.6875 
L 18.109375 46.1875 
Q 21.34375 51.125 25.703125 53.5625 
Q 30.078125 56 35.796875 56 
Q 45.21875 56 50.046875 50.171875 
Q 54.890625 44.34375 54.890625 33.015625 
z
" id="DejaVuSans-110"/>
       <path d="M 18.3125 70.21875 
L 18.3125 54.6875 
L 36.8125 54.6875 
L 36.8125 47.703125 
L 18.3125 47.703125 
L 18.3125 18.015625 
Q 18.3125 11.328125 20.140625 9.421875 
Q 21.96875 7.515625 27.59375 7.515625 
L 36.8125 7.515625 
L 36.8125 0 
L 27.59375 0 
Q 17.1875 0 13.234375 3.875 
Q 9.28125 7.765625 9.28125 18.015625 
L 9.28125 47.703125 
L 2.6875 47.703125 
L 2.6875 54.6875 
L 9.28125 54.6875 
L 9.28125 70.21875 
z
" id="DejaVuSans-116"/>
       <path d="M 9.421875 54.6875 
L 18.40625 54.6875 
L 18.40625 0 
L 9.421875 0 
z
M 9.421875 75.984375 
L 18.40625 75.984375 
L 18.40625 64.59375 
L 9.421875 64.59375 
z
" id="DejaVuSans-105"/>
       <path d="M 52 44.1875 
Q 55.375 50.25 60.0625 53.125 
Q 64.75 56 71.09375 56 
Q 79.640625 56 84.28125 50.015625 
Q 88.921875 44.046875 88.921875 33.015625 
L 88.921875 0 
L 79.890625 0 
L 79.890625 32.71875 
Q 79.890625 40.578125 77.09375 44.375 
Q 74.3125 48.1875 68.609375 48.1875 
Q 61.625 48.1875 57.5625 43.546875 
Q 53.515625 38.921875 53.515625 30.90625 
L 53.515625 0 
L 44.484375 0 
L 44.484375 32.71875 
Q 44.484375 40.625 41.703125 44.40625 
Q 38.921875 48.1875 33.109375 48.1875 
Q 26.21875 48.1875 22.15625 43.53125 
Q 18.109375 38.875 18.109375 30.90625 
L 18.109375 0 
L 9.078125 0 
L 9.078125 54.6875 
L 18.109375 54.6875 
L 18.109375 46.1875 
Q 21.1875 51.21875 25.484375 53.609375 
Q 29.78125 56 35.6875 56 
Q 41.65625 56 45.828125 52.96875 
Q 50 49.953125 52 44.1875 
z
" id="DejaVuSans-109"/>
      </defs>
      <use xlink:href="#DejaVuSans-86"/>
      <use x="62.033203" xlink:href="#DejaVuSans-65"/>
      <use x="130.441406" xlink:href="#DejaVuSans-68"/>
      <use x="207.443359" xlink:href="#DejaVuSans-69"/>
      <use x="270.626953" xlink:href="#DejaVuSans-82"/>
      <use x="340.109375" xlink:href="#DejaVuSans-32"/>
      <use x="371.896484" xlink:href="#DejaVuSans-83"/>
      <use x="435.373047" xlink:href="#DejaVuSans-101"/>
      <use x="496.896484" xlink:href="#DejaVuSans-110"/>
      <use x="560.275391" xlink:href="#DejaVuSans-116"/>
      <use x="599.484375" xlink:href="#DejaVuSans-105"/>
      <use x="627.267578" xlink:href="#DejaVuSans-109"/>
      <use x="724.679688" xlink:href="#DejaVuSans-101"/>
      <use x="786.203125" xlink:href="#DejaVuSans-110"/>
      <use x="849.582031" xlink:href="#DejaVuSans-116"/>
     </g>
    </g>
   </g>
   <g id="matplotlib.axis_2">
    <g id="ytick_1">
     <g id="line2d_6">
      <defs>
       <path d="M 0 0 
L -3.5 0 
" id="m2ca1e8fc44" style="stroke:#000000;stroke-width:0.8;"/>
      </defs>
      <g>
       <use style="stroke:#000000;stroke-width:0.8;" x="108" xlink:href="#m2ca1e8fc44" y="378"/>
      </g>
     </g>
     <g id="text_7">
      <!-- 0 -->
      <g transform="translate(90.82 384.07875)scale(0.16 -0.16)">
       <use xlink:href="#DejaVuSans-48"/>
      </g>
     </g>
    </g>
    <g id="ytick_2">
     <g id="line2d_7">
      <g>
       <use style="stroke:#000000;stroke-width:0.8;" x="108" xlink:href="#m2ca1e8fc44" y="316.234306"/>
      </g>
     </g>
     <g id="text_8">
      <!-- 1 -->
      <g transform="translate(90.82 322.313056)scale(0.16 -0.16)">
       <use xlink:href="#DejaVuSans-49"/>
      </g>
     </g>
    </g>
    <g id="ytick_3">
     <g id="line2d_8">
      <g>
       <use style="stroke:#000000;stroke-width:0.8;" x="108" xlink:href="#m2ca1e8fc44" y="254.468613"/>
      </g>
     </g>
     <g id="text_9">
      <!-- 2 -->
      <g transform="translate(90.82 260.547363)scale(0.16 -0.16)">
       <defs>
        <path d="M 19.1875 8.296875 
L 53.609375 8.296875 
L 53.609375 0 
L 7.328125 0 
L 7.328125 8.296875 
Q 12.9375 14.109375 22.625 23.890625 
Q 32.328125 33.6875 34.8125 36.53125 
Q 39.546875 41.84375 41.421875 45.53125 
Q 43.3125 49.21875 43.3125 52.78125 
Q 43.3125 58.59375 39.234375 62.25 
Q 35.15625 65.921875 28.609375 65.921875 
Q 23.96875 65.921875 18.8125 64.3125 
Q 13.671875 62.703125 7.8125 59.421875 
L 7.8125 69.390625 
Q 13.765625 71.78125 18.9375 73 
Q 24.125 74.21875 28.421875 74.21875 
Q 39.75 74.21875 46.484375 68.546875 
Q 53.21875 62.890625 53.21875 53.421875 
Q 53.21875 48.921875 51.53125 44.890625 
Q 49.859375 40.875 45.40625 35.40625 
Q 44.1875 33.984375 37.640625 27.21875 
Q 31.109375 20.453125 19.1875 8.296875 
z
" id="DejaVuSans-50"/>
       </defs>
       <use xlink:href="#DejaVuSans-50"/>
      </g>
     </g>
    </g>
    <g id="ytick_4">
     <g id="line2d_9">
      <g>
       <use style="stroke:#000000;stroke-width:0.8;" x="108" xlink:href="#m2ca1e8fc44" y="192.702919"/>
      </g>
     </g>
     <g id="text_10">
      <!-- 3 -->
      <g transform="translate(90.82 198.781669)scale(0.16 -0.16)">
       <defs>
        <path d="M 40.578125 39.3125 
Q 47.65625 37.796875 51.625 33 
Q 55.609375 28.21875 55.609375 21.1875 
Q 55.609375 10.40625 48.1875 4.484375 
Q 40.765625 -1.421875 27.09375 -1.421875 
Q 22.515625 -1.421875 17.65625 -0.515625 
Q 12.796875 0.390625 7.625 2.203125 
L 7.625 11.71875 
Q 11.71875 9.328125 16.59375 8.109375 
Q 21.484375 6.890625 26.8125 6.890625 
Q 36.078125 6.890625 40.9375 10.546875 
Q 45.796875 14.203125 45.796875 21.1875 
Q 45.796875 27.640625 41.28125 31.265625 
Q 36.765625 34.90625 28.71875 34.90625 
L 20.21875 34.90625 
L 20.21875 43.015625 
L 29.109375 43.015625 
Q 36.375 43.015625 40.234375 45.921875 
Q 44.09375 48.828125 44.09375 54.296875 
Q 44.09375 59.90625 40.109375 62.90625 
Q 36.140625 65.921875 28.71875 65.921875 
Q 24.65625 65.921875 20.015625 65.03125 
Q 15.375 64.15625 9.8125 62.3125 
L 9.8125 71.09375 
Q 15.4375 72.65625 20.34375 73.4375 
Q 25.25 74.21875 29.59375 74.21875 
Q 40.828125 74.21875 47.359375 69.109375 
Q 53.90625 64.015625 53.90625 55.328125 
Q 53.90625 49.265625 50.4375 45.09375 
Q 46.96875 40.921875 40.578125 39.3125 
z
" id="DejaVuSans-51"/>
       </defs>
       <use xlink:href="#DejaVuSans-51"/>
      </g>
     </g>
    </g>
    <g id="ytick_5">
     <g id="line2d_10">
      <g>
       <use style="stroke:#000000;stroke-width:0.8;" x="108" xlink:href="#m2ca1e8fc44" y="130.937225"/>
      </g>
     </g>
     <g id="text_11">
      <!-- 4 -->
      <g transform="translate(90.82 137.015975)scale(0.16 -0.16)">
       <defs>
        <path d="M 37.796875 64.3125 
L 12.890625 25.390625 
L 37.796875 25.390625 
z
M 35.203125 72.90625 
L 47.609375 72.90625 
L 47.609375 25.390625 
L 58.015625 25.390625 
L 58.015625 17.1875 
L 47.609375 17.1875 
L 47.609375 0 
L 37.796875 0 
L 37.796875 17.1875 
L 4.890625 17.1875 
L 4.890625 26.703125 
z
" id="DejaVuSans-52"/>
       </defs>
       <use xlink:href="#DejaVuSans-52"/>
      </g>
     </g>
    </g>
    <g id="ytick_6">
     <g id="line2d_11">
      <g>
       <use style="stroke:#000000;stroke-width:0.8;" x="108" xlink:href="#m2ca1e8fc44" y="69.171531"/>
      </g>
     </g>
     <g id="text_12">
      <!-- 5 -->
      <g transform="translate(90.82 75.250281)scale(0.16 -0.16)">
       <use xlink:href="#DejaVuSans-53"/>
      </g>
     </g>
    </g>
    <g id="text_13">
     <!-- Density -->
     <g transform="translate(83.4925 245.33375)rotate(-90)scale(0.16 -0.16)">
      <defs>
       <path d="M 44.28125 53.078125 
L 44.28125 44.578125 
Q 40.484375 46.53125 36.375 47.5 
Q 32.28125 48.484375 27.875 48.484375 
Q 21.1875 48.484375 17.84375 46.4375 
Q 14.5 44.390625 14.5 40.28125 
Q 14.5 37.15625 16.890625 35.375 
Q 19.28125 33.59375 26.515625 31.984375 
L 29.59375 31.296875 
Q 39.15625 29.25 43.1875 25.515625 
Q 47.21875 21.78125 47.21875 15.09375 
Q 47.21875 7.46875 41.1875 3.015625 
Q 35.15625 -1.421875 24.609375 -1.421875 
Q 20.21875 -1.421875 15.453125 -0.5625 
Q 10.6875 0.296875 5.421875 2 
L 5.421875 11.28125 
Q 10.40625 8.6875 15.234375 7.390625 
Q 20.0625 6.109375 24.8125 6.109375 
Q 31.15625 6.109375 34.5625 8.28125 
Q 37.984375 10.453125 37.984375 14.40625 
Q 37.984375 18.0625 35.515625 20.015625 
Q 33.0625 21.96875 24.703125 23.78125 
L 21.578125 24.515625 
Q 13.234375 26.265625 9.515625 29.90625 
Q 5.8125 33.546875 5.8125 39.890625 
Q 5.8125 47.609375 11.28125 51.796875 
Q 16.75 56 26.8125 56 
Q 31.78125 56 36.171875 55.265625 
Q 40.578125 54.546875 44.28125 53.078125 
z
" id="DejaVuSans-115"/>
       <path d="M 32.171875 -5.078125 
Q 28.375 -14.84375 24.75 -17.8125 
Q 21.140625 -20.796875 15.09375 -20.796875 
L 7.90625 -20.796875 
L 7.90625 -13.28125 
L 13.1875 -13.28125 
Q 16.890625 -13.28125 18.9375 -11.515625 
Q 21 -9.765625 23.484375 -3.21875 
L 25.09375 0.875 
L 2.984375 54.6875 
L 12.5 54.6875 
L 29.59375 11.921875 
L 46.6875 54.6875 
L 56.203125 54.6875 
z
" id="DejaVuSans-121"/>
      </defs>
      <use xlink:href="#DejaVuSans-68"/>
      <use x="77.001953" xlink:href="#DejaVuSans-101"/>
      <use x="138.525391" xlink:href="#DejaVuSans-110"/>
      <use x="201.904297" xlink:href="#DejaVuSans-115"/>
      <use x="254.003906" xlink:href="#DejaVuSans-105"/>
      <use x="281.787109" xlink:href="#DejaVuSans-116"/>
      <use x="320.996094" xlink:href="#DejaVuSans-121"/>
     </g>
    </g>
   </g>
   <g id="line2d_12">
    <path clip-path="url(#pd6ea99d937)" d="M 148.614017 377.999192 
L 160.44869 377.934355 
L 166.366026 377.730119 
L 172.283362 377.2272 
L 178.200699 376.305434 
L 184.118035 375.030089 
L 192.99404 373.00865 
L 198.911376 371.819831 
L 204.828712 370.802691 
L 219.622053 368.634983 
L 228.498058 367.515152 
L 261.043407 363.944223 
L 272.87808 363.349618 
L 275.836748 362.872414 
L 278.795416 362.190123 
L 287.671421 359.891021 
L 290.630089 359.324238 
L 293.588757 358.919517 
L 296.547425 358.686765 
L 302.464762 358.635347 
L 311.340766 358.914466 
L 317.258102 359.100423 
L 320.216771 358.932903 
L 323.175439 358.474352 
L 329.092775 357.14849 
L 332.051443 356.720945 
L 335.010111 356.613003 
L 340.927448 356.754564 
L 343.886116 356.520841 
L 346.844784 355.90294 
L 349.803452 354.912301 
L 358.679457 351.138313 
L 361.638125 350.836089 
L 364.596793 351.696807 
L 367.555461 353.647576 
L 373.472797 358.649292 
L 376.431466 360.604054 
L 379.390134 361.943914 
L 382.348802 362.813585 
L 385.30747 363.392055 
L 388.266138 363.746214 
L 391.224806 363.834226 
L 394.183475 363.614231 
L 403.059479 362.173832 
L 406.018147 361.995908 
L 408.976815 362.096987 
L 417.85282 363.122892 
L 420.811488 362.292568 
L 423.770156 358.064967 
L 426.728824 345.606741 
L 429.687493 317.655878 
L 432.646161 268.152826 
L 438.563497 129.792251 
L 441.522165 85.452828 
L 444.480833 87.472743 
L 447.439501 134.752346 
L 450.39817 205.19139 
L 453.356838 271.811944 
L 456.315506 318.586171 
L 459.274174 344.080805 
L 462.232842 355.085107 
L 465.19151 359.086404 
L 468.150179 360.719305 
L 471.108847 361.788749 
L 474.067515 362.589715 
L 477.026183 363.008117 
L 479.984851 362.996201 
L 482.943519 362.607991 
L 485.902188 361.901587 
L 488.860856 360.904037 
L 497.73686 357.310101 
L 500.695528 356.610039 
L 506.612865 355.76429 
L 509.571533 354.747823 
L 512.530201 352.815159 
L 515.488869 350.021933 
L 518.447537 346.900135 
L 521.406206 344.231269 
L 524.364874 342.588276 
L 527.323542 341.926483 
L 530.28221 341.575205 
L 533.240878 340.72952 
L 536.199546 339.091626 
L 539.158214 337.088685 
L 542.116883 335.419023 
L 545.075551 334.337562 
L 548.034219 333.395554 
L 550.992887 331.891546 
L 553.951555 329.575949 
L 556.910223 326.98063 
L 559.868892 325.148638 
L 562.82756 324.976273 
L 565.786228 326.60667 
L 571.703564 332.134288 
L 574.662232 334.410325 
L 583.538237 340.032272 
L 586.496905 341.98065 
L 589.455573 343.504722 
L 592.414241 344.331855 
L 595.37291 344.45731 
L 598.331578 344.088049 
L 604.248914 342.74661 
L 613.124919 340.261828 
L 616.083587 339.971416 
L 619.042255 340.332245 
L 622.000923 341.229117 
L 624.959591 342.32979 
L 627.918259 343.308141 
L 630.876927 343.988768 
L 633.835596 344.338922 
L 636.794264 344.403498 
L 642.7116 344.170025 
L 645.670268 344.259894 
L 648.628936 344.67764 
L 651.587605 345.376145 
L 657.504941 346.963798 
L 660.463609 347.622904 
L 666.380945 348.63288 
L 672.298282 349.601173 
L 675.25695 350.303416 
L 678.215618 351.255023 
L 681.174286 352.453649 
L 684.132954 353.846805 
L 687.091623 355.393257 
L 690.050291 357.105442 
L 693.008959 359.032472 
L 695.967627 361.205271 
L 701.884963 366.12387 
L 707.8023 371.072076 
L 710.760968 373.204529 
L 713.719636 374.940647 
L 716.678304 376.221951 
L 719.636972 377.068554 
L 722.59564 377.564324 
L 725.554309 377.819558 
L 731.471645 377.979118 
L 737.388981 377.998626 
L 737.388981 377.998626 
" style="fill:none;stroke:#000000;stroke-linecap:square;stroke-opacity:0.3;stroke-width:1.5;"/>
   </g>
   <g id="line2d_13">
    <path clip-path="url(#pd6ea99d937)" d="M 146.092861 377.999848 
L 166.991494 377.900971 
L 172.962531 377.71259 
L 178.933569 377.358969 
L 187.890126 376.526413 
L 217.745315 373.322566 
L 247.600504 370.221885 
L 262.528098 368.167746 
L 277.455693 366.529998 
L 283.42673 365.397745 
L 289.397768 364.256256 
L 292.383287 363.857132 
L 295.368806 363.618966 
L 298.354325 363.5329 
L 304.325363 363.6565 
L 310.2964 363.765857 
L 313.281919 363.642281 
L 316.267438 363.321693 
L 319.252957 362.78469 
L 331.195033 360.03047 
L 334.180551 359.736474 
L 343.137108 359.399939 
L 346.122627 358.942937 
L 349.108146 358.11099 
L 352.093665 356.915329 
L 358.064703 354.23054 
L 361.050221 353.480898 
L 364.03574 353.622103 
L 367.021259 354.76797 
L 370.006778 356.711051 
L 375.977816 361.212629 
L 378.963335 363.008722 
L 381.948854 364.317192 
L 384.934372 365.191094 
L 387.919891 365.701609 
L 390.90541 365.875993 
L 393.890929 365.721111 
L 396.876448 365.286384 
L 402.847486 364.143 
L 405.833005 363.796343 
L 408.818524 363.768387 
L 414.789561 364.286092 
L 417.77508 363.693832 
L 420.760599 360.341179 
L 423.746118 350.63743 
L 426.731637 329.274588 
L 429.717156 290.902181 
L 432.702675 234.108948 
L 435.688194 166.052705 
L 438.673712 103.576453 
L 441.659231 67.371421 
L 444.64475 71.123197 
L 447.630269 113.203295 
L 453.601307 243.77662 
L 456.586826 296.3868 
L 459.572345 330.479537 
L 462.557864 348.921872 
L 465.543382 357.512754 
L 468.528901 361.227703 
L 471.51442 362.9342 
L 474.499939 363.773928 
L 477.485458 364.005136 
L 480.470977 363.625449 
L 483.456496 362.654744 
L 486.442015 361.211314 
L 492.413052 357.88942 
L 495.398571 356.655037 
L 498.38409 356.030916 
L 501.369609 355.962168 
L 504.355128 356.061276 
L 507.340647 355.712613 
L 510.326166 354.327733 
L 513.311685 351.649203 
L 516.297204 347.955885 
L 519.282722 344.025888 
L 522.268241 340.80409 
L 525.25376 338.916631 
L 528.239279 338.346097 
L 534.210317 338.72252 
L 537.195836 338.542649 
L 540.181355 337.93994 
L 543.166874 337.051835 
L 546.152392 335.951377 
L 549.137911 334.609678 
L 555.108949 331.491016 
L 558.094468 330.368361 
L 561.079987 330.133073 
L 564.065506 331.014651 
L 567.051025 332.865364 
L 573.022062 337.599279 
L 576.007581 339.705455 
L 584.964138 345.188658 
L 587.949657 346.864614 
L 590.935176 348.156318 
L 593.920695 348.890236 
L 596.906214 349.081379 
L 599.891732 348.885457 
L 602.877251 348.467799 
L 611.833808 346.80048 
L 614.819327 346.501832 
L 617.804846 346.576988 
L 620.790365 347.047297 
L 623.775884 347.815022 
L 629.746921 349.733249 
L 635.717959 351.704689 
L 638.703478 352.604611 
L 641.688997 353.379704 
L 644.674516 353.98499 
L 647.660035 354.382251 
L 650.645554 354.509343 
L 653.631072 354.210777 
L 656.616591 353.143743 
L 659.60211 350.739866 
L 662.587629 346.374182 
L 665.573148 339.837793 
L 668.558667 331.931314 
L 671.544186 324.662308 
L 674.529705 320.582775 
L 677.515223 321.457012 
L 680.500742 327.18695 
L 683.486261 335.879313 
L 686.47178 345.004512 
L 689.457299 352.708036 
L 692.442818 358.379555 
L 695.428337 362.364664 
L 698.413856 365.331935 
L 701.399375 367.809389 
L 704.384893 370.04493 
L 707.370412 372.073497 
L 710.355931 373.834848 
L 713.34145 375.262611 
L 716.326969 376.329963 
L 719.312488 377.06037 
L 722.298007 377.515349 
L 725.283526 377.772107 
L 731.254563 377.962591 
L 740.21112 377.998895 
L 740.21112 377.998895 
" style="fill:none;stroke:#000000;stroke-linecap:square;stroke-opacity:0.3;stroke-width:1.5;"/>
   </g>
   <g id="line2d_14">
    <path clip-path="url(#pd6ea99d937)" d="M 144.956409 377.999813 
L 165.90708 377.908593 
L 174.885939 377.605647 
L 180.871846 377.202448 
L 189.850705 376.33565 
L 210.801376 374.247353 
L 225.766142 372.936023 
L 240.730907 371.655254 
L 249.709766 370.621858 
L 258.688626 369.559064 
L 264.674532 369.12524 
L 273.653391 368.51132 
L 279.639297 367.788268 
L 288.618157 366.282025 
L 294.604063 365.369806 
L 297.597016 365.063675 
L 303.582922 364.813954 
L 309.568828 364.762625 
L 312.561781 364.621075 
L 315.554734 364.320177 
L 321.54064 363.280679 
L 327.526547 362.150894 
L 333.512453 361.401584 
L 339.498359 360.797424 
L 345.484265 359.917078 
L 351.470171 358.638267 
L 357.456077 357.219715 
L 360.449031 356.822813 
L 363.441984 356.917709 
L 366.434937 357.604851 
L 369.42789 358.795792 
L 375.413796 361.662973 
L 378.406749 362.843535 
L 381.399702 363.706598 
L 384.392655 364.270215 
L 387.385608 364.581327 
L 390.378561 364.666102 
L 393.371514 364.526194 
L 396.364468 364.17114 
L 405.343327 362.673113 
L 408.33628 362.507179 
L 414.322186 362.802463 
L 417.315139 362.276658 
L 420.308092 359.45187 
L 423.301045 351.528485 
L 426.293998 334.629685 
L 429.286951 305.080278 
L 432.279905 262.111785 
L 435.272858 210.856376 
L 438.265811 163.039841 
L 441.258764 133.260619 
L 444.251717 131.927064 
L 447.24467 159.392344 
L 450.237623 205.74302 
L 453.230576 256.430471 
L 456.223529 299.467456 
L 459.216482 329.460814 
L 462.209435 347.082567 
L 465.202388 355.956696 
L 468.195342 359.681634 
L 471.188295 360.35513 
L 474.181248 358.495221 
L 477.174201 353.725003 
L 480.167154 345.736815 
L 483.160107 335.198884 
L 486.15306 324.182938 
L 489.146013 315.701279 
L 492.138966 312.40561 
L 495.131919 315.201704 
L 498.124872 322.758215 
L 501.117825 332.259525 
L 504.110779 340.810098 
L 507.103732 346.537106 
L 510.096685 348.894638 
L 513.089638 348.353677 
L 516.082591 345.925622 
L 519.075544 342.769447 
L 522.068497 339.876249 
L 525.06145 337.806167 
L 528.054403 336.582223 
L 534.040309 335.229081 
L 546.012122 332.529488 
L 549.005075 331.463499 
L 551.998028 329.926811 
L 554.990981 328.108942 
L 557.983934 326.507765 
L 560.976887 325.700617 
L 563.96984 326.036397 
L 566.962793 327.448142 
L 575.941653 333.692626 
L 578.934606 335.38052 
L 581.927559 336.84744 
L 584.920512 338.140985 
L 587.913465 339.190678 
L 590.906418 339.864558 
L 593.899371 340.099399 
L 596.892324 339.979506 
L 602.87823 339.453546 
L 605.871183 339.354184 
L 608.864136 339.434646 
L 611.85709 339.707241 
L 614.850043 340.197714 
L 617.842996 340.920204 
L 626.821855 343.710929 
L 629.814808 344.437902 
L 632.807761 344.966827 
L 644.779573 346.503341 
L 656.751386 348.625134 
L 659.744339 348.919379 
L 662.737292 348.977154 
L 668.723198 348.625924 
L 671.716151 348.654273 
L 674.709104 349.188057 
L 677.702057 350.363418 
L 680.69501 352.104816 
L 686.680917 356.394623 
L 695.659776 363.180437 
L 704.638635 370.296881 
L 707.631588 372.369297 
L 710.624541 374.11567 
L 713.617494 375.487599 
L 716.610447 376.486574 
L 719.603401 377.156484 
L 722.596354 377.567623 
L 725.589307 377.797261 
L 731.575213 377.966489 
L 740.554072 377.998953 
L 740.554072 377.998953 
" style="fill:none;stroke:#000000;stroke-linecap:square;stroke-opacity:0.3;stroke-width:1.5;"/>
   </g>
   <g id="line2d_15">
    <path clip-path="url(#pd6ea99d937)" d="M 143.672223 377.999636 
L 161.734604 377.912194 
L 167.755398 377.718849 
L 173.776192 377.316918 
L 179.796986 376.676686 
L 188.828176 375.396386 
L 200.869764 373.627191 
L 215.921749 371.707337 
L 227.963336 370.363564 
L 243.015321 368.77773 
L 261.077702 366.634785 
L 270.108893 365.629448 
L 273.11929 365.136824 
L 276.129687 364.509148 
L 282.15048 362.916399 
L 288.171274 361.341652 
L 291.181671 360.773521 
L 294.192068 360.409749 
L 297.202465 360.233067 
L 303.223259 360.204728 
L 309.244053 360.159866 
L 312.25445 359.990829 
L 315.264846 359.670392 
L 318.275243 359.190501 
L 327.306434 357.468613 
L 330.316831 357.168222 
L 333.327228 357.099782 
L 339.348022 357.279761 
L 342.358419 357.201789 
L 345.368816 356.822946 
L 348.379212 356.107404 
L 357.410403 353.298172 
L 360.4208 352.949059 
L 363.431197 353.240158 
L 366.441594 354.194272 
L 369.451991 355.67431 
L 375.472785 359.212818 
L 378.483182 360.806295 
L 381.493578 362.110937 
L 384.503975 363.101282 
L 387.514372 363.78886 
L 390.524769 364.190405 
L 393.535166 364.323341 
L 396.545563 364.221129 
L 402.566357 363.604398 
L 411.597547 362.730171 
L 414.607944 361.790731 
L 417.618341 358.967912 
L 420.628738 352.009965 
L 423.639135 337.702525 
L 426.649532 312.628112 
L 429.659929 274.897838 
L 432.670326 226.421226 
L 435.680723 174.378134 
L 438.69112 130.275204 
L 441.701517 106.072521 
L 444.711913 108.979923 
L 447.72231 137.970558 
L 450.732707 184.300352 
L 453.743104 235.69448 
L 456.753501 281.507624 
L 459.763898 315.961558 
L 462.774295 338.353688 
L 465.784692 351.159457 
L 468.795089 357.740236 
L 471.805486 360.845098 
L 474.815883 362.142882 
L 477.826279 362.416988 
L 480.836676 361.965933 
L 483.847073 360.93596 
L 486.85747 359.504256 
L 489.867867 357.92821 
L 492.878264 356.499634 
L 495.888661 355.445695 
L 498.899058 354.825236 
L 504.919852 354.035749 
L 507.930249 353.093814 
L 510.940645 351.350455 
L 513.951042 348.792945 
L 519.971836 342.784659 
L 522.982233 340.455887 
L 525.99263 339.06125 
L 529.003027 338.51938 
L 535.023821 338.430138 
L 538.034218 338.126983 
L 541.044614 337.434326 
L 544.055011 336.384239 
L 550.075805 333.646888 
L 553.086202 332.308146 
L 556.096599 331.344555 
L 559.106996 331.058042 
L 562.117393 331.644591 
L 565.12779 333.083477 
L 568.138187 335.119413 
L 571.148584 337.365526 
L 574.15898 339.472192 
L 577.169377 341.256654 
L 580.179774 342.715412 
L 583.190171 343.928874 
L 586.200568 344.944639 
L 589.210965 345.728718 
L 592.221362 346.206049 
L 595.231759 346.33778 
L 598.242156 346.165754 
L 610.283743 344.737132 
L 613.29414 344.698554 
L 616.304537 344.895275 
L 619.314934 345.309968 
L 625.335728 346.516094 
L 634.366919 348.305949 
L 640.387712 349.514656 
L 646.408506 350.980778 
L 652.4293 352.508151 
L 658.450094 353.735992 
L 661.460491 354.160978 
L 664.470888 354.446596 
L 673.502078 354.929222 
L 676.512475 355.32743 
L 679.522872 356.052869 
L 682.533269 357.165182 
L 685.543666 358.648702 
L 688.554063 360.429258 
L 694.574857 364.496547 
L 700.595651 368.702516 
L 703.606047 370.685627 
L 706.616444 372.492466 
L 709.626841 374.055368 
L 712.637238 375.328087 
L 715.647635 376.297305 
L 718.658032 376.983984 
L 721.668429 377.434733 
L 724.678826 377.707919 
L 730.69962 377.93838 
L 742.741207 377.99901 
L 742.741207 377.99901 
" style="fill:none;stroke:#000000;stroke-linecap:square;stroke-opacity:0.3;stroke-width:1.5;"/>
   </g>
   <g id="line2d_16">
    <path clip-path="url(#pd6ea99d937)" d="M 142.565068 377.999728 
L 163.645476 377.926386 
L 172.679936 377.712559 
L 181.714396 377.248008 
L 190.748856 376.537011 
L 211.829263 374.768449 
L 235.921157 372.948879 
L 257.001564 370.850982 
L 266.036024 370.341518 
L 272.058998 369.986402 
L 278.081971 369.335856 
L 290.127918 367.59401 
L 296.150892 367.137737 
L 302.173865 367.003865 
L 308.196839 366.907566 
L 311.208325 366.760682 
L 314.219812 366.484477 
L 317.231299 366.043148 
L 320.242786 365.431243 
L 329.277246 363.176914 
L 332.288733 362.599757 
L 335.300219 362.203742 
L 347.346166 361.214833 
L 353.36914 360.145332 
L 356.380626 359.566435 
L 359.392113 359.165447 
L 362.4036 359.113355 
L 365.415087 359.515507 
L 368.426573 360.363031 
L 371.43806 361.533131 
L 377.461034 364.097767 
L 380.47252 365.178707 
L 383.484007 366.010469 
L 386.495494 366.561292 
L 389.50698 366.81787 
L 392.518467 366.782827 
L 395.529954 366.489987 
L 404.564414 365.065038 
L 410.587388 364.525117 
L 413.598874 363.781617 
L 416.610361 361.383178 
L 419.621848 355.236886 
L 422.633334 342.277758 
L 425.644821 319.026183 
L 428.656308 283.057392 
L 431.667795 235.163271 
L 434.679281 181.134202 
L 437.690768 131.588933 
L 440.702255 98.945329 
L 443.713742 92.457574 
L 446.725228 113.972554 
L 449.736715 157.047861 
L 452.748202 210.013592 
L 455.759689 261.020533 
L 458.771175 302.133456 
L 461.782662 330.668547 
L 464.794149 347.996103 
L 467.805635 357.299362 
L 470.817122 361.714047 
L 473.828609 363.443825 
L 476.840096 363.698399 
L 479.851582 363.022561 
L 482.863069 361.669108 
L 485.874556 359.853922 
L 488.886043 357.860666 
L 491.897529 356.018775 
L 494.909016 354.601309 
L 497.920503 353.70445 
L 503.943476 352.631297 
L 506.954963 351.594999 
L 509.96645 349.683557 
L 512.977936 346.802392 
L 519.00091 339.588385 
L 522.012397 336.529772 
L 525.023883 334.529314 
L 528.03537 333.654083 
L 531.046857 333.591719 
L 537.06983 334.035919 
L 540.081317 333.924404 
L 543.092804 333.499433 
L 546.104291 332.813378 
L 549.115777 331.915497 
L 558.150237 328.848096 
L 561.161724 328.383892 
L 564.173211 328.592044 
L 567.184698 329.538484 
L 570.196184 331.110059 
L 573.207671 333.079819 
L 579.230645 337.322657 
L 582.242131 339.296979 
L 585.253618 341.033192 
L 588.265105 342.425309 
L 591.276592 343.379908 
L 594.288078 343.859647 
L 597.299565 343.90942 
L 600.311052 343.642113 
L 609.345512 342.306057 
L 612.356999 342.074193 
L 615.368485 342.094714 
L 618.379972 342.405184 
L 621.391459 342.994387 
L 624.402946 343.809399 
L 630.425919 345.824563 
L 636.448892 347.91606 
L 639.460379 348.851535 
L 642.471866 349.645152 
L 645.483353 350.254489 
L 648.494839 350.651133 
L 651.506326 350.81925 
L 654.517813 350.746195 
L 657.5293 350.415816 
L 660.540786 349.822117 
L 669.575247 347.455628 
L 672.586733 347.309201 
L 675.59822 347.961449 
L 678.609707 349.49555 
L 681.621193 351.767568 
L 693.66714 362.518065 
L 699.690114 367.059676 
L 705.713087 371.126437 
L 708.724574 372.898624 
L 711.736061 374.41034 
L 714.747548 375.618593 
L 717.759034 376.517644 
L 720.770521 377.137792 
L 723.782008 377.533099 
L 729.804981 377.890916 
L 738.839441 377.993298 
L 741.850928 377.997773 
L 741.850928 377.997773 
" style="fill:none;stroke:#000000;stroke-linecap:square;stroke-opacity:0.3;stroke-width:1.5;"/>
   </g>
   <g id="line2d_17">
    <path clip-path="url(#pd6ea99d937)" d="M 139.33394 377.999658 
L 157.656276 377.935067 
L 163.763722 377.781276 
L 169.871167 377.421108 
L 175.978613 376.767099 
L 182.086058 375.825385 
L 203.462117 372.088764 
L 212.623286 370.828537 
L 221.784454 369.817527 
L 246.214236 367.473372 
L 270.644018 365.188395 
L 276.751463 364.179176 
L 285.912631 362.304627 
L 288.966354 361.807926 
L 292.020077 361.460198 
L 295.0738 361.264676 
L 301.181245 361.178546 
L 310.342413 361.086171 
L 316.449859 360.78317 
L 325.611027 360.028364 
L 334.772195 359.31633 
L 340.879641 358.826341 
L 343.933364 358.461983 
L 350.040809 357.419274 
L 353.094532 356.847893 
L 356.148255 356.396343 
L 359.201977 356.206403 
L 362.2557 356.391505 
L 365.309423 356.995127 
L 368.363146 357.9709 
L 380.578037 362.840175 
L 383.631759 363.692141 
L 386.685482 364.297611 
L 389.739205 364.665169 
L 392.792928 364.822635 
L 398.900373 364.708032 
L 405.007819 364.373164 
L 408.061541 364.035802 
L 411.115264 363.154561 
L 414.168987 360.890971 
L 417.22271 355.786086 
L 420.276432 345.731845 
L 423.330155 328.291115 
L 426.383878 301.532109 
L 429.437601 265.299954 
L 435.545046 179.174499 
L 438.598769 143.957736 
L 441.652492 124.887081 
L 444.706214 126.683713 
L 447.759937 148.779036 
L 450.81366 185.565937 
L 453.867383 228.674983 
L 456.921105 270.027961 
L 459.974828 304.165619 
L 463.028551 329.008073 
L 466.082274 345.191442 
L 469.135996 354.74987 
L 472.189719 359.922807 
L 475.243442 362.48182 
L 478.297165 363.56453 
L 481.350887 363.80049 
L 484.40461 363.516009 
L 487.458333 362.898521 
L 493.565778 361.192823 
L 499.673224 359.36012 
L 502.726946 358.305959 
L 505.780669 356.947733 
L 508.834392 355.113351 
L 511.888115 352.738088 
L 521.049283 344.425239 
L 524.103006 342.453799 
L 527.156728 341.271175 
L 530.210451 340.772723 
L 536.317897 340.545382 
L 539.371619 340.130423 
L 542.425342 339.243533 
L 545.479065 337.885416 
L 551.58651 334.463468 
L 554.640233 332.980281 
L 557.693956 332.070493 
L 560.747679 331.96329 
L 563.801401 332.732892 
L 566.855124 334.272084 
L 569.908847 336.328054 
L 576.016292 340.768672 
L 579.070015 342.678804 
L 582.123738 344.216244 
L 585.177461 345.339329 
L 588.231183 346.034669 
L 591.284906 346.308507 
L 594.338629 346.197756 
L 597.392352 345.781015 
L 606.55352 343.930661 
L 609.607243 343.541072 
L 612.660965 343.427225 
L 615.714688 343.627027 
L 618.768411 344.122074 
L 624.875856 345.651614 
L 627.929579 346.43864 
L 630.983302 347.091914 
L 634.037025 347.557164 
L 637.090747 347.842188 
L 646.251916 348.359296 
L 649.305638 348.697375 
L 652.359361 349.182438 
L 658.466807 350.474229 
L 670.681698 353.380468 
L 676.789143 355.127094 
L 679.842866 356.198999 
L 682.896589 357.436849 
L 685.950311 358.847098 
L 689.004034 360.421944 
L 695.11148 363.976367 
L 704.272648 369.700164 
L 707.326371 371.474186 
L 710.380093 373.070172 
L 713.433816 374.436572 
L 716.487539 375.544878 
L 719.541262 376.393356 
L 722.594984 377.004533 
L 725.648707 377.417698 
L 731.756153 377.834041 
L 740.917321 377.984543 
L 747.024766 377.997764 
L 747.024766 377.997764 
" style="fill:none;stroke:#000000;stroke-linecap:square;stroke-opacity:0.3;stroke-width:1.5;"/>
   </g>
   <g id="line2d_18">
    <path clip-path="url(#pd6ea99d937)" d="M 141.08021 377.999596 
L 165.274989 377.88844 
L 174.348032 377.663435 
L 183.421074 377.238954 
L 195.518464 376.385794 
L 231.810634 373.401951 
L 246.932371 371.931399 
L 268.102803 369.681377 
L 274.151498 369.022135 
L 280.200193 368.14605 
L 292.297583 366.25113 
L 298.346278 365.617045 
L 310.443668 364.543723 
L 325.565405 362.90144 
L 331.6141 362.59264 
L 337.662795 362.393018 
L 340.687142 362.191076 
L 343.71149 361.837477 
L 346.735837 361.299766 
L 352.784532 359.795545 
L 355.80888 359.042505 
L 358.833227 358.508526 
L 361.857575 358.359949 
L 364.881922 358.701238 
L 367.90627 359.5355 
L 370.930617 360.760184 
L 380.003659 364.992248 
L 383.028007 366.072662 
L 386.052354 366.850237 
L 389.076702 367.308173 
L 392.101049 367.461751 
L 395.125397 367.359714 
L 407.222787 366.162543 
L 410.247134 365.71809 
L 413.271482 364.536113 
L 416.295829 361.469642 
L 419.320177 354.628397 
L 422.344524 341.446223 
L 425.368871 319.25113 
L 428.393219 286.486898 
L 431.417566 244.319111 
L 434.441914 197.801081 
L 437.466261 155.540081 
L 440.490609 127.348258 
L 443.514956 120.596251 
L 446.539304 137.086866 
L 449.563651 172.2524 
L 455.612346 262.173335 
L 458.636694 300.138248 
L 461.661041 327.888684 
L 464.685388 345.72382 
L 467.709736 355.877184 
L 470.734083 360.990772 
L 473.758431 363.199902 
L 476.782778 363.868622 
L 479.807126 363.713187 
L 482.831473 363.036062 
L 485.855821 361.91506 
L 488.880168 360.312116 
L 491.904516 358.130529 
L 494.928863 355.265076 
L 497.953211 351.674233 
L 500.977558 347.468777 
L 504.001906 342.972119 
L 507.026253 338.694883 
L 510.0506 335.203527 
L 513.074948 332.933317 
L 516.099295 332.042606 
L 519.123643 332.382343 
L 522.14799 333.579665 
L 528.196685 336.733602 
L 531.221033 337.9395 
L 534.24538 338.60464 
L 537.269728 338.662076 
L 540.294075 338.115485 
L 543.318423 336.988911 
L 546.34277 335.316641 
L 549.367117 333.189115 
L 555.415812 328.552702 
L 558.44016 326.798859 
L 561.464507 325.873209 
L 564.488855 325.874798 
L 567.513202 326.664746 
L 570.53755 327.970164 
L 573.561897 329.540516 
L 579.610592 333.063866 
L 585.659287 336.822043 
L 588.683635 338.428031 
L 591.707982 339.568318 
L 594.732329 340.144803 
L 597.756677 340.225797 
L 606.829719 339.648808 
L 609.854067 339.849908 
L 612.878414 340.406317 
L 615.902762 341.29954 
L 618.927109 342.450801 
L 628.000152 346.209236 
L 631.024499 347.202497 
L 634.048847 347.99196 
L 637.073194 348.602571 
L 643.121889 349.479753 
L 649.170584 350.112533 
L 652.194931 350.304934 
L 655.219279 350.325698 
L 658.243626 350.08441 
L 661.267974 349.518407 
L 664.292321 348.652124 
L 667.316669 347.646558 
L 670.341016 346.800446 
L 673.365364 346.479404 
L 676.389711 346.990603 
L 679.414058 348.461942 
L 682.438406 350.791735 
L 685.462753 353.696706 
L 691.511448 359.895031 
L 694.535796 362.726919 
L 697.560143 365.277609 
L 700.584491 367.573238 
L 703.608838 369.65369 
L 706.633186 371.533846 
L 709.657533 373.195769 
L 712.681881 374.604658 
L 715.706228 375.732864 
L 718.730576 376.577558 
L 721.754923 377.165041 
L 724.77927 377.543067 
L 730.827965 377.890315 
L 739.901008 377.992807 
L 742.925355 377.997534 
L 742.925355 377.997534 
" style="fill:none;stroke:#000000;stroke-linecap:square;stroke-opacity:0.3;stroke-width:1.5;"/>
   </g>
   <g id="line2d_19">
    <path clip-path="url(#pd6ea99d937)" d="M 142.136676 377.999787 
L 163.257808 377.929359 
L 172.309722 377.697811 
L 178.344332 377.374263 
L 187.396246 376.624438 
L 205.500074 374.77102 
L 220.586597 373.224478 
L 241.70773 371.237099 
L 250.759644 370.103718 
L 259.811558 368.990742 
L 274.898081 367.507138 
L 280.93269 366.476354 
L 289.984604 364.631897 
L 293.001909 364.134295 
L 296.019214 363.7721 
L 299.036518 363.569818 
L 302.053823 363.526062 
L 314.123042 363.742255 
L 317.140346 363.469657 
L 320.157651 363.001768 
L 329.209565 361.351619 
L 332.22687 361.028597 
L 341.278784 360.421785 
L 344.296088 359.959546 
L 347.313393 359.210364 
L 350.330698 358.172623 
L 356.365307 355.740087 
L 359.382612 354.831585 
L 362.399916 354.48493 
L 365.417221 354.848679 
L 368.434526 355.893216 
L 371.45183 357.424434 
L 377.48644 360.856029 
L 380.503744 362.315812 
L 383.521049 363.449877 
L 386.538354 364.21814 
L 389.555658 364.607029 
L 392.572963 364.628193 
L 395.590268 364.338976 
L 404.642182 362.998472 
L 410.676791 362.829723 
L 413.694096 362.360838 
L 416.7114 360.266764 
L 419.728705 354.392286 
L 422.74601 341.531481 
L 425.763314 317.973943 
L 428.780619 281.055912 
L 431.797923 231.51125 
L 434.815228 175.447864 
L 437.832533 124.184898 
L 440.849837 90.92468 
L 443.867142 85.314514 
L 446.884447 108.894417 
L 449.901751 154.346602 
L 452.919056 209.061382 
L 455.936361 260.695048 
L 458.953665 301.435641 
L 461.97097 329.129431 
L 464.988275 345.714762 
L 468.005579 354.716055 
L 471.022884 359.331212 
L 474.040189 361.649503 
L 477.057493 362.724107 
L 480.074798 362.979412 
L 483.092103 362.588977 
L 486.109407 361.698592 
L 495.161321 358.219083 
L 498.178626 357.47255 
L 504.213235 356.456631 
L 507.23054 355.556921 
L 510.247845 353.949467 
L 513.265149 351.536284 
L 519.299759 345.444952 
L 522.317063 342.799281 
L 525.334368 340.956412 
L 528.351673 339.921679 
L 534.386282 338.915078 
L 537.403587 338.168943 
L 540.420891 337.005757 
L 543.438196 335.45865 
L 552.49011 329.947514 
L 555.507415 328.552292 
L 558.524719 327.885315 
L 561.542024 328.205951 
L 564.559329 329.57298 
L 567.576633 331.785095 
L 573.611243 337.150184 
L 576.628547 339.602255 
L 579.645852 341.710834 
L 582.663157 343.501237 
L 585.680461 345.002373 
L 588.697766 346.174959 
L 591.715071 346.926424 
L 594.732375 347.180552 
L 597.74968 346.93999 
L 600.766985 346.304977 
L 606.801594 344.600131 
L 609.818899 343.960097 
L 612.836203 343.697301 
L 615.853508 343.88668 
L 618.870813 344.495336 
L 621.888117 345.402464 
L 630.940031 348.495796 
L 636.974641 350.189685 
L 643.00925 351.521147 
L 646.026555 352.019533 
L 649.043859 352.384181 
L 655.078469 352.73957 
L 670.164992 353.043635 
L 673.182297 353.507688 
L 676.199601 354.296111 
L 679.216906 355.423538 
L 682.234211 356.842779 
L 685.251515 358.471836 
L 691.286125 362.082688 
L 697.320734 365.984682 
L 703.355343 369.986443 
L 706.372648 371.859166 
L 709.389953 373.527459 
L 712.407257 374.921089 
L 715.424562 376.006712 
L 718.441867 376.791989 
L 721.459171 377.317573 
L 724.476476 377.642044 
L 730.511085 377.922252 
L 742.580304 377.998684 
L 742.580304 377.998684 
" style="fill:none;stroke:#000000;stroke-linecap:square;stroke-opacity:0.3;stroke-width:1.5;"/>
   </g>
   <g id="line2d_20">
    <path clip-path="url(#pd6ea99d937)" d="M 140.672623 377.999512 
L 162.006478 377.918949 
L 171.149558 377.710235 
L 180.292639 377.31443 
L 192.483413 376.570406 
L 204.674187 375.594829 
L 250.38959 371.204295 
L 262.580364 369.876534 
L 277.818832 368.343526 
L 290.009606 366.709406 
L 308.295767 364.300222 
L 314.391154 363.587909 
L 320.486542 363.098309 
L 326.581929 362.914675 
L 335.725009 362.875093 
L 338.772703 362.734021 
L 341.820396 362.435523 
L 344.86809 361.942697 
L 347.915783 361.252143 
L 357.058864 358.70022 
L 360.106557 358.144573 
L 363.154251 357.982329 
L 366.201945 358.287855 
L 369.249638 359.044958 
L 372.297332 360.150566 
L 381.440412 363.911666 
L 384.488106 364.811653 
L 387.535799 365.379371 
L 390.583493 365.590052 
L 393.631186 365.465784 
L 396.67888 365.074778 
L 402.774267 363.894252 
L 405.821961 363.216976 
L 408.869654 362.305243 
L 411.917348 360.634052 
L 414.965041 357.196073 
L 418.012735 350.447866 
L 421.060428 338.462399 
L 424.108122 319.408067 
L 427.155815 292.370302 
L 430.203509 258.309173 
L 433.251202 220.699963 
L 436.298896 185.330616 
L 439.346589 158.999753 
L 442.394283 147.426758 
L 445.441976 153.231567 
L 448.48967 174.959256 
L 451.537364 207.651714 
L 454.585057 244.669198 
L 457.632751 279.855392 
L 460.680444 309.092761 
L 463.728138 330.767611 
L 466.775831 345.280874 
L 469.823525 354.116832 
L 472.871218 358.984713 
L 475.918912 361.307305 
L 478.966605 362.066803 
L 482.014299 361.87224 
L 485.061992 361.098508 
L 488.109686 360.001918 
L 497.252767 356.438774 
L 503.348154 354.16905 
L 506.395847 352.720272 
L 509.443541 350.861754 
L 512.491234 348.572702 
L 518.586621 343.396235 
L 521.634315 341.087575 
L 524.682008 339.292811 
L 527.729702 338.072386 
L 530.777395 337.312852 
L 536.872782 336.252419 
L 539.920476 335.518739 
L 542.96817 334.4988 
L 546.015863 333.20921 
L 552.11125 330.348201 
L 555.158944 329.209296 
L 558.206637 328.584971 
L 561.254331 328.644769 
L 564.302024 329.427839 
L 567.349718 330.822256 
L 576.492798 336.209988 
L 579.540492 337.615705 
L 582.588186 338.592745 
L 585.635879 339.104751 
L 588.683573 339.171246 
L 591.731266 338.869592 
L 600.874347 337.297801 
L 603.92204 337.114717 
L 606.969734 337.270058 
L 610.017427 337.759377 
L 613.065121 338.529154 
L 616.112814 339.504358 
L 631.351282 344.918477 
L 634.398976 345.734542 
L 637.446669 346.407483 
L 640.494363 346.938775 
L 643.542056 347.33163 
L 646.58975 347.586962 
L 649.637443 347.701488 
L 652.685137 347.666705 
L 655.73283 347.470027 
L 658.780524 347.102507 
L 664.875911 345.951086 
L 667.923604 345.349245 
L 670.971298 344.955852 
L 674.018992 344.981721 
L 677.066685 345.605054 
L 680.114379 346.913406 
L 683.162072 348.874137 
L 686.209766 351.34786 
L 692.305153 357.046149 
L 698.40054 362.678342 
L 701.448233 365.26435 
L 704.495927 367.658485 
L 707.54362 369.838562 
L 710.591314 371.775449 
L 713.639007 373.437694 
L 716.686701 374.802782 
L 719.734395 375.867373 
L 722.782088 376.651261 
L 725.829782 377.19393 
L 728.877475 377.546036 
L 734.972862 377.880642 
L 744.115943 377.990207 
L 747.163636 377.996294 
L 747.163636 377.996294 
" style="fill:none;stroke:#000000;stroke-linecap:square;stroke-opacity:0.3;stroke-width:1.5;"/>
   </g>
   <g id="line2d_21">
    <path clip-path="url(#pd6ea99d937)" d="M 138.436364 377.999745 
L 165.926807 377.897115 
L 175.090288 377.624925 
L 181.199276 377.260958 
L 190.362757 376.451783 
L 208.689719 374.702486 
L 220.907694 373.764233 
L 239.234657 372.451021 
L 245.343644 371.796885 
L 269.779594 368.75982 
L 281.997569 367.454912 
L 294.215544 365.803697 
L 303.379025 364.342289 
L 315.597 362.255247 
L 321.705987 361.496944 
L 327.814975 361.015669 
L 336.978456 360.389912 
L 340.03295 360.033257 
L 343.087444 359.539439 
L 349.196431 358.177756 
L 355.305419 356.807631 
L 358.359912 356.421047 
L 361.414406 356.390326 
L 364.4689 356.777891 
L 367.523393 357.577502 
L 370.577887 358.713645 
L 379.741368 362.751018 
L 382.795862 363.811398 
L 385.850356 364.538744 
L 388.90485 364.881581 
L 391.959343 364.842628 
L 395.013837 364.480729 
L 398.068331 363.897726 
L 404.177318 362.416696 
L 407.231812 361.400894 
L 410.286306 359.68176 
L 413.340799 356.348224 
L 416.395293 350.002509 
L 419.449787 338.88527 
L 422.504281 321.25987 
L 425.558774 296.072813 
L 428.613268 263.755203 
L 434.722255 190.059961 
L 437.776749 159.448468 
L 440.831243 140.872689 
L 443.885737 138.18126 
L 446.94023 151.925882 
L 449.994724 179.180751 
L 453.049218 214.554876 
L 456.103712 251.923147 
L 459.158205 286.119652 
L 462.212699 313.968188 
L 465.267193 334.436667 
L 468.321687 348.117961 
L 471.37618 356.444509 
L 474.430674 361.000774 
L 477.485168 363.114471 
L 480.539661 363.725166 
L 483.594155 363.42882 
L 486.648649 362.584244 
L 489.703143 361.404497 
L 492.757636 360.003802 
L 495.81213 358.406976 
L 498.866624 356.547875 
L 501.921118 354.286592 
L 504.975611 351.463988 
L 508.030105 347.989988 
L 511.084599 343.936689 
L 517.193586 335.429173 
L 520.24808 331.998513 
L 523.302574 329.750873 
L 526.357067 328.88677 
L 529.411561 329.284643 
L 532.466055 330.545337 
L 535.520549 332.13006 
L 538.575042 333.529885 
L 541.629536 334.400225 
L 544.68403 334.62119 
L 547.738524 334.282859 
L 553.847511 332.932368 
L 556.902005 332.498748 
L 559.956498 332.522821 
L 563.010992 333.093071 
L 566.065486 334.176255 
L 569.11998 335.639395 
L 575.228967 338.94079 
L 578.283461 340.417543 
L 581.337955 341.609719 
L 584.392448 342.458157 
L 587.446942 342.954306 
L 590.501436 343.136305 
L 593.555929 343.083898 
L 602.719411 342.608822 
L 605.773904 342.632879 
L 608.828398 342.796182 
L 614.937386 343.469539 
L 617.991879 343.966966 
L 621.046373 344.601653 
L 624.100867 345.41169 
L 627.155361 346.419981 
L 630.209854 347.612539 
L 639.373335 351.541056 
L 642.427829 352.621783 
L 645.482323 353.447383 
L 648.536817 353.985259 
L 651.59131 354.24048 
L 654.645804 354.249381 
L 660.754792 353.803772 
L 663.809285 353.55227 
L 666.863779 353.457349 
L 669.918273 353.661756 
L 672.972766 354.283497 
L 676.02726 355.382308 
L 679.081754 356.938066 
L 682.136248 358.853398 
L 694.354223 367.259863 
L 697.408716 369.058888 
L 700.46321 370.682094 
L 703.517704 372.137852 
L 706.572198 373.429879 
L 709.626691 374.55345 
L 712.681185 375.499859 
L 715.735679 376.264153 
L 718.790172 376.851264 
L 721.844666 377.277873 
L 727.953654 377.757954 
L 734.062641 377.935694 
L 746.280616 377.99783 
L 746.280616 377.99783 
" style="fill:none;stroke:#000000;stroke-linecap:square;stroke-opacity:0.3;stroke-width:1.5;"/>
   </g>
   <g id="patch_3">
    <path d="M 108 378 
L 108 51.84 
" style="fill:none;stroke:#000000;stroke-linecap:square;stroke-linejoin:miter;stroke-width:0.8;"/>
   </g>
   <g id="patch_4">
    <path d="M 108 378 
L 777.6 378 
" style="fill:none;stroke:#000000;stroke-linecap:square;stroke-linejoin:miter;stroke-width:0.8;"/>
   </g>
  </g>
 </g>
 <defs>
  <clipPath id="pd6ea99d937">
   <rect height="326.16" width="669.6" x="108" y="51.84"/>
  </clipPath>
 </defs>
</svg>
